<?xml version="1.0" encoding="utf-8" standalone="no"?>
<!DOCTYPE svg PUBLIC "-//W3C//DTD SVG 1.1//EN"
  "http://www.w3.org/Graphics/SVG/1.1/DTD/svg11.dtd">
<svg xmlns:xlink="http://www.w3.org/1999/xlink" width="792pt" height="302.4pt" viewBox="0 0 792 302.4" xmlns="http://www.w3.org/2000/svg" version="1.1">
 <metadata>
  <rdf:RDF xmlns:dc="http://purl.org/dc/elements/1.1/" xmlns:cc="http://creativecommons.org/ns#" xmlns:rdf="http://www.w3.org/1999/02/22-rdf-syntax-ns#">
   <cc:Work>
    <dc:type rdf:resource="http://purl.org/dc/dcmitype/StillImage"/>
    <dc:date>2026-09-24T21:10:20.854653</dc:date>
    <dc:format>image/svg+xml</dc:format>
    <dc:creator>
     <cc:Agent>
      <dc:title>Matplotlib v3.11.2, https://matplotlib.org/</dc:title>
     </cc:Agent>
    </dc:creator>
   </cc:Work>
  </rdf:RDF>
 </metadata>
 <defs>
  <style type="text/css">*{stroke-linejoin: round; stroke-linecap: butt}</style>
 </defs>
 <g id="figure_1">
  <g id="patch_1">
   <path d="M 0 302.4
L 792 302.4
L 792 0
L 0 0
z
" style="fill: #ffffff"/>
  </g>
  <g id="axes_1">
   <g id="patch_2">
    <path d="M 55.813521 268.398979
L 396.813438 268.398979
L 396.813438 20.001579
L 55.813521 20.001579
z
" style="fill: #ffffff"/>
   </g>
   <g id="PathCollection_1">
    <defs>
     <path id="m7eb242b997" d="M 0 2.915476
C 0.773193 2.915476 1.514823 2.608283 2.061553 2.061553
C 2.608283 1.514823 2.915476 0.773193 2.915476 0
C 2.915476 -0.773193 2.608283 -1.514823 2.061553 -2.061553
C 1.514823 -2.608283 0.773193 -2.915476 0 -2.915476
C -0.773193 -2.915476 -1.514823 -2.608283 -2.061553 -2.061553
C -2.608283 -1.514823 -2.915476 -0.773193 -2.915476 0
C -2.915476 0.773193 -2.608283 1.514823 -2.061553 2.061553
C -1.514823 2.608283 -0.773193 2.915476 0 2.915476
z
" style="stroke: #2675b8; stroke-opacity: 0.85"/>
    </defs>
    <g clip-path="url(#p00d22f4982)">
     <use xlink:href="#m7eb242b997" x="71.313517" y="200.268818" style="fill: #2675b8; fill-opacity: 0.85; stroke: #2675b8; stroke-opacity: 0.85"/>
     <use xlink:href="#m7eb242b997" x="71.313517" y="228.931422" style="fill: #2675b8; fill-opacity: 0.85; stroke: #2675b8; stroke-opacity: 0.85"/>
     <use xlink:href="#m7eb242b997" x="71.313517" y="228.931422" style="fill: #2675b8; fill-opacity: 0.85; stroke: #2675b8; stroke-opacity: 0.85"/>
     <use xlink:href="#m7eb242b997" x="71.608636" y="228.931422" style="fill: #2675b8; fill-opacity: 0.85; stroke: #2675b8; stroke-opacity: 0.85"/>
     <use xlink:href="#m7eb242b997" x="71.700711" y="157.187157" style="fill: #2675b8; fill-opacity: 0.85; stroke: #2675b8; stroke-opacity: 0.85"/>
     <use xlink:href="#m7eb242b997" x="71.727483" y="257.108188" style="fill: #2675b8; fill-opacity: 0.85; stroke: #2675b8; stroke-opacity: 0.85"/>
     <use xlink:href="#m7eb242b997" x="71.727483" y="257.108188" style="fill: #2675b8; fill-opacity: 0.85; stroke: #2675b8; stroke-opacity: 0.85"/>
     <use xlink:href="#m7eb242b997" x="71.820804" y="257.108188" style="fill: #2675b8; fill-opacity: 0.85; stroke: #2675b8; stroke-opacity: 0.85"/>
    </g>
   </g>
   <g id="PathCollection_2">
    <defs>
     <path id="m360265c299" d="M 0 2.915476
C 0.773193 2.915476 1.514823 2.608283 2.061553 2.061553
C 2.608283 1.514823 2.915476 0.773193 2.915476 0
C 2.915476 -0.773193 2.608283 -1.514823 2.061553 -2.061553
C 1.514823 -2.608283 0.773193 -2.915476 0 -2.915476
C -0.773193 -2.915476 -1.514823 -2.608283 -2.061553 -2.061553
C -2.608283 -1.514823 -2.915476 -0.773193 -2.915476 0
C -2.915476 0.773193 -2.608283 1.514823 -2.061553 2.061553
C -1.514823 2.608283 -0.773193 2.915476 0 2.915476
z
" style="stroke: #dc8a21; stroke-opacity: 0.85"/>
    </defs>
    <g clip-path="url(#p00d22f4982)">
     <use xlink:href="#m360265c299" x="149.448537" y="215.688512" style="fill: #dc8a21; fill-opacity: 0.85; stroke: #dc8a21; stroke-opacity: 0.85"/>
     <use xlink:href="#m360265c299" x="149.454108" y="214.978369" style="fill: #dc8a21; fill-opacity: 0.85; stroke: #dc8a21; stroke-opacity: 0.85"/>
     <use xlink:href="#m360265c299" x="149.583208" y="215.688512" style="fill: #dc8a21; fill-opacity: 0.85; stroke: #dc8a21; stroke-opacity: 0.85"/>
     <use xlink:href="#m360265c299" x="149.642148" y="217.516223" style="fill: #dc8a21; fill-opacity: 0.85; stroke: #dc8a21; stroke-opacity: 0.85"/>
     <use xlink:href="#m360265c299" x="149.714663" y="216.929466" style="fill: #dc8a21; fill-opacity: 0.85; stroke: #dc8a21; stroke-opacity: 0.85"/>
    </g>
   </g>
   <g id="PathCollection_3">
    <defs>
     <path id="mf777fd573c" d="M 0 2.915476
C 0.773193 2.915476 1.514823 2.608283 2.061553 2.061553
C 2.608283 1.514823 2.915476 0.773193 2.915476 0
C 2.915476 -0.773193 2.608283 -1.514823 2.061553 -2.061553
C 1.514823 -2.608283 0.773193 -2.915476 0 -2.915476
C -0.773193 -2.915476 -1.514823 -2.608283 -2.061553 -2.061553
C -2.608283 -1.514823 -2.915476 -0.773193 -2.915476 0
C -2.915476 0.773193 -2.608283 1.514823 -2.061553 2.061553
C -1.514823 2.608283 -0.773193 2.915476 0 2.915476
z
" style="stroke: #a4489e; stroke-opacity: 0.85"/>
    </defs>
    <g clip-path="url(#p00d22f4982)">
     <use xlink:href="#mf777fd573c" x="350.208198" y="139.272382" style="fill: #a4489e; fill-opacity: 0.85; stroke: #a4489e; stroke-opacity: 0.85"/>
     <use xlink:href="#mf777fd573c" x="350.781611" y="139.272382" style="fill: #a4489e; fill-opacity: 0.85; stroke: #a4489e; stroke-opacity: 0.85"/>
     <use xlink:href="#mf777fd573c" x="365.88109" y="101.257727" style="fill: #a4489e; fill-opacity: 0.85; stroke: #a4489e; stroke-opacity: 0.85"/>
     <use xlink:href="#mf777fd573c" x="365.88109" y="99.880623" style="fill: #a4489e; fill-opacity: 0.85; stroke: #a4489e; stroke-opacity: 0.85"/>
     <use xlink:href="#mf777fd573c" x="365.88109" y="99.714253" style="fill: #a4489e; fill-opacity: 0.85; stroke: #a4489e; stroke-opacity: 0.85"/>
     <use xlink:href="#mf777fd573c" x="381.313441" y="77.46241" style="fill: #a4489e; fill-opacity: 0.85; stroke: #a4489e; stroke-opacity: 0.85"/>
     <use xlink:href="#mf777fd573c" x="381.313441" y="79.652694" style="fill: #a4489e; fill-opacity: 0.85; stroke: #a4489e; stroke-opacity: 0.85"/>
     <use xlink:href="#mf777fd573c" x="381.313441" y="94.430593" style="fill: #a4489e; fill-opacity: 0.85; stroke: #a4489e; stroke-opacity: 0.85"/>
     <use xlink:href="#mf777fd573c" x="381.313441" y="31.29237" style="fill: #a4489e; fill-opacity: 0.85; stroke: #a4489e; stroke-opacity: 0.85"/>
     <use xlink:href="#mf777fd573c" x="381.313441" y="108.738688" style="fill: #a4489e; fill-opacity: 0.85; stroke: #a4489e; stroke-opacity: 0.85"/>
    </g>
   </g>
   <g id="matplotlib.axis_1">
    <g id="xtick_1">
     <g id="line2d_1">
      <path d="M 109.640987 268.398979
L 109.640987 20.001579
" clip-path="url(#p00d22f4982)" style="fill: none; stroke: #b0b0b0; stroke-opacity: 0.2; stroke-width: 0.8; stroke-linecap: square"/>
     </g>
     <g id="line2d_2">
      <defs>
       <path id="m69be20b197" d="M 0 0
L 0 3.5
" style="stroke: #000000; stroke-width: 0.8"/>
      </defs>
      <g>
       <use xlink:href="#m69be20b197" x="109.640987" y="268.398979" style="stroke: #000000; stroke-width: 0.8"/>
      </g>
     </g>
     <g id="text_1">
      <!-- 200 -->
      <g transform="translate(100.097237 282.996635) scale(0.1 -0.1)">
       <defs>
        <path id="DejaVuSans-15" d="M 1228 531
L 3431 531
L 3431 0
L 469 0
L 469 531
Q 828 903 1448 1529
Q 2069 2156 2228 2338
Q 2531 2678 2651 2914
Q 2772 3150 2772 3378
Q 2772 3750 2511 3984
Q 2250 4219 1831 4219
Q 1534 4219 1204 4116
Q 875 4013 500 3803
L 500 4441
Q 881 4594 1212 4672
Q 1544 4750 1819 4750
Q 2544 4750 2975 4387
Q 3406 4025 3406 3419
Q 3406 3131 3298 2873
Q 3191 2616 2906 2266
Q 2828 2175 2409 1742
Q 1991 1309 1228 531
z
" transform="scale(0.015625)"/>
        <path id="DejaVuSans-13" d="M 2034 4250
Q 1547 4250 1301 3770
Q 1056 3291 1056 2328
Q 1056 1369 1301 889
Q 1547 409 2034 409
Q 2525 409 2770 889
Q 3016 1369 3016 2328
Q 3016 3291 2770 3770
Q 2525 4250 2034 4250
z
M 2034 4750
Q 2819 4750 3233 4129
Q 3647 3509 3647 2328
Q 3647 1150 3233 529
Q 2819 -91 2034 -91
Q 1250 -91 836 529
Q 422 1150 422 2328
Q 422 3509 836 4129
Q 1250 4750 2034 4750
z
" transform="scale(0.015625)"/>
       </defs>
       <use xlink:href="#DejaVuSans-15"/>
       <use xlink:href="#DejaVuSans-13" transform="translate(63.625 0)"/>
       <use xlink:href="#DejaVuSans-13" transform="translate(127.25 0)"/>
      </g>
     </g>
    </g>
    <g id="xtick_2">
     <g id="line2d_3">
      <path d="M 177.48027 268.398979
L 177.48027 20.001579
" clip-path="url(#p00d22f4982)" style="fill: none; stroke: #b0b0b0; stroke-opacity: 0.2; stroke-width: 0.8; stroke-linecap: square"/>
     </g>
     <g id="line2d_4">
      <g>
       <use xlink:href="#m69be20b197" x="177.48027" y="268.398979" style="stroke: #000000; stroke-width: 0.8"/>
      </g>
     </g>
     <g id="text_2">
      <!-- 400 -->
      <g transform="translate(167.93652 282.996635) scale(0.1 -0.1)">
       <defs>
        <path id="DejaVuSans-17" d="M 2419 4116
L 825 1625
L 2419 1625
L 2419 4116
z
M 2253 4666
L 3047 4666
L 3047 1625
L 3713 1625
L 3713 1100
L 3047 1100
L 3047 0
L 2419 0
L 2419 1100
L 313 1100
L 313 1709
L 2253 4666
z
" transform="scale(0.015625)"/>
       </defs>
       <use xlink:href="#DejaVuSans-17"/>
       <use xlink:href="#DejaVuSans-13" transform="translate(63.625 0)"/>
       <use xlink:href="#DejaVuSans-13" transform="translate(127.25 0)"/>
      </g>
     </g>
    </g>
    <g id="xtick_3">
     <g id="line2d_5">
      <path d="M 245.319553 268.398979
L 245.319553 20.001579
" clip-path="url(#p00d22f4982)" style="fill: none; stroke: #b0b0b0; stroke-opacity: 0.2; stroke-width: 0.8; stroke-linecap: square"/>
     </g>
     <g id="line2d_6">
      <g>
       <use xlink:href="#m69be20b197" x="245.319553" y="268.398979" style="stroke: #000000; stroke-width: 0.8"/>
      </g>
     </g>
     <g id="text_3">
      <!-- 600 -->
      <g transform="translate(235.775803 282.996635) scale(0.1 -0.1)">
       <defs>
        <path id="DejaVuSans-19" d="M 2113 2584
Q 1688 2584 1439 2293
Q 1191 2003 1191 1497
Q 1191 994 1439 701
Q 1688 409 2113 409
Q 2538 409 2786 701
Q 3034 994 3034 1497
Q 3034 2003 2786 2293
Q 2538 2584 2113 2584
z
M 3366 4563
L 3366 3988
Q 3128 4100 2886 4159
Q 2644 4219 2406 4219
Q 1781 4219 1451 3797
Q 1122 3375 1075 2522
Q 1259 2794 1537 2939
Q 1816 3084 2150 3084
Q 2853 3084 3261 2657
Q 3669 2231 3669 1497
Q 3669 778 3244 343
Q 2819 -91 2113 -91
Q 1303 -91 875 529
Q 447 1150 447 2328
Q 447 3434 972 4092
Q 1497 4750 2381 4750
Q 2619 4750 2861 4703
Q 3103 4656 3366 4563
z
" transform="scale(0.015625)"/>
       </defs>
       <use xlink:href="#DejaVuSans-19"/>
       <use xlink:href="#DejaVuSans-13" transform="translate(63.625 0)"/>
       <use xlink:href="#DejaVuSans-13" transform="translate(127.25 0)"/>
      </g>
     </g>
    </g>
    <g id="xtick_4">
     <g id="line2d_7">
      <path d="M 313.158836 268.398979
L 313.158836 20.001579
" clip-path="url(#p00d22f4982)" style="fill: none; stroke: #b0b0b0; stroke-opacity: 0.2; stroke-width: 0.8; stroke-linecap: square"/>
     </g>
     <g id="line2d_8">
      <g>
       <use xlink:href="#m69be20b197" x="313.158836" y="268.398979" style="stroke: #000000; stroke-width: 0.8"/>
      </g>
     </g>
     <g id="text_4">
      <!-- 800 -->
      <g transform="translate(303.615086 282.996635) scale(0.1 -0.1)">
       <defs>
        <path id="DejaVuSans-1b" d="M 2034 2216
Q 1584 2216 1326 1975
Q 1069 1734 1069 1313
Q 1069 891 1326 650
Q 1584 409 2034 409
Q 2484 409 2743 651
Q 3003 894 3003 1313
Q 3003 1734 2745 1975
Q 2488 2216 2034 2216
z
M 1403 2484
Q 997 2584 770 2862
Q 544 3141 544 3541
Q 544 4100 942 4425
Q 1341 4750 2034 4750
Q 2731 4750 3128 4425
Q 3525 4100 3525 3541
Q 3525 3141 3298 2862
Q 3072 2584 2669 2484
Q 3125 2378 3379 2068
Q 3634 1759 3634 1313
Q 3634 634 3220 271
Q 2806 -91 2034 -91
Q 1263 -91 848 271
Q 434 634 434 1313
Q 434 1759 690 2068
Q 947 2378 1403 2484
z
M 1172 3481
Q 1172 3119 1398 2916
Q 1625 2713 2034 2713
Q 2441 2713 2670 2916
Q 2900 3119 2900 3481
Q 2900 3844 2670 4047
Q 2441 4250 2034 4250
Q 1625 4250 1398 4047
Q 1172 3844 1172 3481
z
" transform="scale(0.015625)"/>
       </defs>
       <use xlink:href="#DejaVuSans-1b"/>
       <use xlink:href="#DejaVuSans-13" transform="translate(63.625 0)"/>
       <use xlink:href="#DejaVuSans-13" transform="translate(127.25 0)"/>
      </g>
     </g>
    </g>
    <g id="xtick_5">
     <g id="line2d_9">
      <path d="M 380.998119 268.398979
L 380.998119 20.001579
" clip-path="url(#p00d22f4982)" style="fill: none; stroke: #b0b0b0; stroke-opacity: 0.2; stroke-width: 0.8; stroke-linecap: square"/>
     </g>
     <g id="line2d_10">
      <g>
       <use xlink:href="#m69be20b197" x="380.998119" y="268.398979" style="stroke: #000000; stroke-width: 0.8"/>
      </g>
     </g>
     <g id="text_5">
      <!-- 1000 -->
      <g transform="translate(368.273119 282.996635) scale(0.1 -0.1)">
       <defs>
        <path id="DejaVuSans-14" d="M 794 531
L 1825 531
L 1825 4091
L 703 3866
L 703 4441
L 1819 4666
L 2450 4666
L 2450 531
L 3481 531
L 3481 0
L 794 0
L 794 531
z
" transform="scale(0.015625)"/>
       </defs>
       <use xlink:href="#DejaVuSans-14"/>
       <use xlink:href="#DejaVuSans-13" transform="translate(63.625 0)"/>
       <use xlink:href="#DejaVuSans-13" transform="translate(127.25 0)"/>
       <use xlink:href="#DejaVuSans-13" transform="translate(190.875 0)"/>
      </g>
     </g>
    </g>
    <g id="text_6">
     <!-- Weighted lateness (thousand weighted seconds) -->
     <g transform="translate(104.525979 296.997416) scale(0.1 -0.1)">
      <defs>
       <path id="DejaVuSans-3a" d="M 213 4666
L 850 4666
L 1831 722
L 2809 4666
L 3519 4666
L 4500 722
L 5478 4666
L 6119 4666
L 4947 0
L 4153 0
L 3169 4050
L 2175 0
L 1381 0
L 213 4666
z
" transform="scale(0.015625)"/>
       <path id="DejaVuSans-48" d="M 3597 1894
L 3597 1613
L 953 1613
Q 991 1019 1311 708
Q 1631 397 2203 397
Q 2534 397 2845 478
Q 3156 559 3463 722
L 3463 178
Q 3153 47 2828 -22
Q 2503 -91 2169 -91
Q 1331 -91 842 396
Q 353 884 353 1716
Q 353 2575 817 3079
Q 1281 3584 2069 3584
Q 2775 3584 3186 3129
Q 3597 2675 3597 1894
z
M 3022 2063
Q 3016 2534 2758 2815
Q 2500 3097 2075 3097
Q 1594 3097 1305 2825
Q 1016 2553 972 2059
L 3022 2063
z
" transform="scale(0.015625)"/>
       <path id="DejaVuSans-4c" d="M 603 3500
L 1178 3500
L 1178 0
L 603 0
L 603 3500
z
M 603 4863
L 1178 4863
L 1178 4134
L 603 4134
L 603 4863
z
" transform="scale(0.015625)"/>
       <path id="DejaVuSans-4a" d="M 2906 1791
Q 2906 2416 2648 2759
Q 2391 3103 1925 3103
Q 1463 3103 1205 2759
Q 947 2416 947 1791
Q 947 1169 1205 825
Q 1463 481 1925 481
Q 2391 481 2648 825
Q 2906 1169 2906 1791
z
M 3481 434
Q 3481 -459 3084 -895
Q 2688 -1331 1869 -1331
Q 1566 -1331 1297 -1286
Q 1028 -1241 775 -1147
L 775 -588
Q 1028 -725 1275 -790
Q 1522 -856 1778 -856
Q 2344 -856 2625 -561
Q 2906 -266 2906 331
L 2906 616
Q 2728 306 2450 153
Q 2172 0 1784 0
Q 1141 0 747 490
Q 353 981 353 1791
Q 353 2603 747 3093
Q 1141 3584 1784 3584
Q 2172 3584 2450 3431
Q 2728 3278 2906 2969
L 2906 3500
L 3481 3500
L 3481 434
z
" transform="scale(0.015625)"/>
       <path id="DejaVuSans-4b" d="M 3513 2113
L 3513 0
L 2938 0
L 2938 2094
Q 2938 2591 2744 2837
Q 2550 3084 2163 3084
Q 1697 3084 1428 2787
Q 1159 2491 1159 1978
L 1159 0
L 581 0
L 581 4863
L 1159 4863
L 1159 2956
Q 1366 3272 1645 3428
Q 1925 3584 2291 3584
Q 2894 3584 3203 3211
Q 3513 2838 3513 2113
z
" transform="scale(0.015625)"/>
       <path id="DejaVuSans-57" d="M 1172 4494
L 1172 3500
L 2356 3500
L 2356 3053
L 1172 3053
L 1172 1153
Q 1172 725 1289 603
Q 1406 481 1766 481
L 2356 481
L 2356 0
L 1766 0
Q 1100 0 847 248
Q 594 497 594 1153
L 594 3053
L 172 3053
L 172 3500
L 594 3500
L 594 4494
L 1172 4494
z
" transform="scale(0.015625)"/>
       <path id="DejaVuSans-47" d="M 2906 2969
L 2906 4863
L 3481 4863
L 3481 0
L 2906 0
L 2906 525
Q 2725 213 2448 61
Q 2172 -91 1784 -91
Q 1150 -91 751 415
Q 353 922 353 1747
Q 353 2572 751 3078
Q 1150 3584 1784 3584
Q 2172 3584 2448 3432
Q 2725 3281 2906 2969
z
M 947 1747
Q 947 1113 1208 752
Q 1469 391 1925 391
Q 2381 391 2643 752
Q 2906 1113 2906 1747
Q 2906 2381 2643 2742
Q 2381 3103 1925 3103
Q 1469 3103 1208 2742
Q 947 2381 947 1747
z
" transform="scale(0.015625)"/>
       <path id="DejaVuSans-3" transform="scale(0.015625)"/>
       <path id="DejaVuSans-4f" d="M 603 4863
L 1178 4863
L 1178 0
L 603 0
L 603 4863
z
" transform="scale(0.015625)"/>
       <path id="DejaVuSans-44" d="M 2194 1759
Q 1497 1759 1228 1600
Q 959 1441 959 1056
Q 959 750 1161 570
Q 1363 391 1709 391
Q 2188 391 2477 730
Q 2766 1069 2766 1631
L 2766 1759
L 2194 1759
z
M 3341 1997
L 3341 0
L 2766 0
L 2766 531
Q 2569 213 2275 61
Q 1981 -91 1556 -91
Q 1019 -91 701 211
Q 384 513 384 1019
Q 384 1609 779 1909
Q 1175 2209 1959 2209
L 2766 2209
L 2766 2266
Q 2766 2663 2505 2880
Q 2244 3097 1772 3097
Q 1472 3097 1187 3025
Q 903 2953 641 2809
L 641 3341
Q 956 3463 1253 3523
Q 1550 3584 1831 3584
Q 2591 3584 2966 3190
Q 3341 2797 3341 1997
z
" transform="scale(0.015625)"/>
       <path id="DejaVuSans-51" d="M 3513 2113
L 3513 0
L 2938 0
L 2938 2094
Q 2938 2591 2744 2837
Q 2550 3084 2163 3084
Q 1697 3084 1428 2787
Q 1159 2491 1159 1978
L 1159 0
L 581 0
L 581 3500
L 1159 3500
L 1159 2956
Q 1366 3272 1645 3428
Q 1925 3584 2291 3584
Q 2894 3584 3203 3211
Q 3513 2838 3513 2113
z
" transform="scale(0.015625)"/>
       <path id="DejaVuSans-56" d="M 2834 3397
L 2834 2853
Q 2591 2978 2328 3040
Q 2066 3103 1784 3103
Q 1356 3103 1142 2972
Q 928 2841 928 2578
Q 928 2378 1081 2264
Q 1234 2150 1697 2047
L 1894 2003
Q 2506 1872 2764 1633
Q 3022 1394 3022 966
Q 3022 478 2636 193
Q 2250 -91 1575 -91
Q 1294 -91 989 -36
Q 684 19 347 128
L 347 722
Q 666 556 975 473
Q 1284 391 1588 391
Q 1994 391 2212 530
Q 2431 669 2431 922
Q 2431 1156 2273 1281
Q 2116 1406 1581 1522
L 1381 1569
Q 847 1681 609 1914
Q 372 2147 372 2553
Q 372 3047 722 3315
Q 1072 3584 1716 3584
Q 2034 3584 2315 3537
Q 2597 3491 2834 3397
z
" transform="scale(0.015625)"/>
       <path id="DejaVuSans-b" d="M 1984 4856
Q 1566 4138 1362 3434
Q 1159 2731 1159 2009
Q 1159 1288 1364 580
Q 1569 -128 1984 -844
L 1484 -844
Q 1016 -109 783 600
Q 550 1309 550 2009
Q 550 2706 781 3412
Q 1013 4119 1484 4856
L 1984 4856
z
" transform="scale(0.015625)"/>
       <path id="DejaVuSans-52" d="M 1959 3097
Q 1497 3097 1228 2736
Q 959 2375 959 1747
Q 959 1119 1226 758
Q 1494 397 1959 397
Q 2419 397 2687 759
Q 2956 1122 2956 1747
Q 2956 2369 2687 2733
Q 2419 3097 1959 3097
z
M 1959 3584
Q 2709 3584 3137 3096
Q 3566 2609 3566 1747
Q 3566 888 3137 398
Q 2709 -91 1959 -91
Q 1206 -91 779 398
Q 353 888 353 1747
Q 353 2609 779 3096
Q 1206 3584 1959 3584
z
" transform="scale(0.015625)"/>
       <path id="DejaVuSans-58" d="M 544 1381
L 544 3500
L 1119 3500
L 1119 1403
Q 1119 906 1312 657
Q 1506 409 1894 409
Q 2359 409 2629 706
Q 2900 1003 2900 1516
L 2900 3500
L 3475 3500
L 3475 0
L 2900 0
L 2900 538
Q 2691 219 2414 64
Q 2138 -91 1772 -91
Q 1169 -91 856 284
Q 544 659 544 1381
z
M 1991 3584
L 1991 3584
z
" transform="scale(0.015625)"/>
       <path id="DejaVuSans-5a" d="M 269 3500
L 844 3500
L 1563 769
L 2278 3500
L 2956 3500
L 3675 769
L 4391 3500
L 4966 3500
L 4050 0
L 3372 0
L 2619 2869
L 1863 0
L 1184 0
L 269 3500
z
" transform="scale(0.015625)"/>
       <path id="DejaVuSans-46" d="M 3122 3366
L 3122 2828
Q 2878 2963 2633 3030
Q 2388 3097 2138 3097
Q 1578 3097 1268 2742
Q 959 2388 959 1747
Q 959 1106 1268 751
Q 1578 397 2138 397
Q 2388 397 2633 464
Q 2878 531 3122 666
L 3122 134
Q 2881 22 2623 -34
Q 2366 -91 2075 -91
Q 1284 -91 818 406
Q 353 903 353 1747
Q 353 2603 823 3093
Q 1294 3584 2113 3584
Q 2378 3584 2631 3529
Q 2884 3475 3122 3366
z
" transform="scale(0.015625)"/>
       <path id="DejaVuSans-c" d="M 513 4856
L 1013 4856
Q 1481 4119 1714 3412
Q 1947 2706 1947 2009
Q 1947 1309 1714 600
Q 1481 -109 1013 -844
L 513 -844
Q 928 -128 1133 580
Q 1338 1288 1338 2009
Q 1338 2731 1133 3434
Q 928 4138 513 4856
z
" transform="scale(0.015625)"/>
      </defs>
      <use xlink:href="#DejaVuSans-3a"/>
      <use xlink:href="#DejaVuSans-48" transform="translate(93.015625 0)"/>
      <use xlink:href="#DejaVuSans-4c" transform="translate(154.546875 0)"/>
      <use xlink:href="#DejaVuSans-4a" transform="translate(182.328125 0)"/>
      <use xlink:href="#DejaVuSans-4b" transform="translate(245.8125 0)"/>
      <use xlink:href="#DejaVuSans-57" transform="translate(309.1875 0)"/>
      <use xlink:href="#DejaVuSans-48" transform="translate(348.390625 0)"/>
      <use xlink:href="#DejaVuSans-47" transform="translate(409.921875 0)"/>
      <use xlink:href="#DejaVuSans-3" transform="translate(473.40625 0)"/>
      <use xlink:href="#DejaVuSans-4f" transform="translate(505.1875 0)"/>
      <use xlink:href="#DejaVuSans-44" transform="translate(532.96875 0)"/>
      <use xlink:href="#DejaVuSans-57" transform="translate(594.25 0)"/>
      <use xlink:href="#DejaVuSans-48" transform="translate(633.453125 0)"/>
      <use xlink:href="#DejaVuSans-51" transform="translate(694.984375 0)"/>
      <use xlink:href="#DejaVuSans-48" transform="translate(758.359375 0)"/>
      <use xlink:href="#DejaVuSans-56" transform="translate(819.890625 0)"/>
      <use xlink:href="#DejaVuSans-56" transform="translate(871.984375 0)"/>
      <use xlink:href="#DejaVuSans-3" transform="translate(924.078125 0)"/>
      <use xlink:href="#DejaVuSans-b" transform="translate(955.859375 0)"/>
      <use xlink:href="#DejaVuSans-57" transform="translate(994.875 0)"/>
      <use xlink:href="#DejaVuSans-4b" transform="translate(1034.078125 0)"/>
      <use xlink:href="#DejaVuSans-52" transform="translate(1097.453125 0)"/>
      <use xlink:href="#DejaVuSans-58" transform="translate(1158.640625 0)"/>
      <use xlink:href="#DejaVuSans-56" transform="translate(1222.015625 0)"/>
      <use xlink:href="#DejaVuSans-44" transform="translate(1274.109375 0)"/>
      <use xlink:href="#DejaVuSans-51" transform="translate(1335.390625 0)"/>
      <use xlink:href="#DejaVuSans-47" transform="translate(1398.765625 0)"/>
      <use xlink:href="#DejaVuSans-3" transform="translate(1462.25 0)"/>
      <use xlink:href="#DejaVuSans-5a" transform="translate(1494.03125 0)"/>
      <use xlink:href="#DejaVuSans-48" transform="translate(1575.8125 0)"/>
      <use xlink:href="#DejaVuSans-4c" transform="translate(1637.34375 0)"/>
      <use xlink:href="#DejaVuSans-4a" transform="translate(1665.125 0)"/>
      <use xlink:href="#DejaVuSans-4b" transform="translate(1728.609375 0)"/>
      <use xlink:href="#DejaVuSans-57" transform="translate(1791.984375 0)"/>
      <use xlink:href="#DejaVuSans-48" transform="translate(1831.1875 0)"/>
      <use xlink:href="#DejaVuSans-47" transform="translate(1892.71875 0)"/>
      <use xlink:href="#DejaVuSans-3" transform="translate(1956.203125 0)"/>
      <use xlink:href="#DejaVuSans-56" transform="translate(1987.984375 0)"/>
      <use xlink:href="#DejaVuSans-48" transform="translate(2040.078125 0)"/>
      <use xlink:href="#DejaVuSans-46" transform="translate(2101.609375 0)"/>
      <use xlink:href="#DejaVuSans-52" transform="translate(2156.59375 0)"/>
      <use xlink:href="#DejaVuSans-51" transform="translate(2217.78125 0)"/>
      <use xlink:href="#DejaVuSans-47" transform="translate(2281.15625 0)"/>
      <use xlink:href="#DejaVuSans-56" transform="translate(2344.640625 0)"/>
      <use xlink:href="#DejaVuSans-c" transform="translate(2396.734375 0)"/>
     </g>
    </g>
   </g>
   <g id="matplotlib.axis_2">
    <g id="ytick_1">
     <g id="line2d_11">
      <path d="M 55.813521 242.103752
L 396.813438 242.103752
" clip-path="url(#p00d22f4982)" style="fill: none; stroke: #b0b0b0; stroke-opacity: 0.2; stroke-width: 0.8; stroke-linecap: square"/>
     </g>
     <g id="line2d_12">
      <defs>
       <path id="m64cb1c1d46" d="M 0 0
L -3.5 0
" style="stroke: #000000; stroke-width: 0.8"/>
      </defs>
      <g>
       <use xlink:href="#m64cb1c1d46" x="55.813521" y="242.103752" style="stroke: #000000; stroke-width: 0.8"/>
      </g>
     </g>
     <g id="text_7">
      <!-- 11500 -->
      <g transform="translate(17.001021 245.90258) scale(0.1 -0.1)">
       <defs>
        <path id="DejaVuSans-18" d="M 691 4666
L 3169 4666
L 3169 4134
L 1269 4134
L 1269 2991
Q 1406 3038 1543 3061
Q 1681 3084 1819 3084
Q 2600 3084 3056 2656
Q 3513 2228 3513 1497
Q 3513 744 3044 326
Q 2575 -91 1722 -91
Q 1428 -91 1123 -41
Q 819 9 494 109
L 494 744
Q 775 591 1075 516
Q 1375 441 1709 441
Q 2250 441 2565 725
Q 2881 1009 2881 1497
Q 2881 1984 2565 2268
Q 2250 2553 1709 2553
Q 1456 2553 1204 2497
Q 953 2441 691 2322
L 691 4666
z
" transform="scale(0.015625)"/>
       </defs>
       <use xlink:href="#DejaVuSans-14"/>
       <use xlink:href="#DejaVuSans-14" transform="translate(63.625 0)"/>
       <use xlink:href="#DejaVuSans-18" transform="translate(127.25 0)"/>
       <use xlink:href="#DejaVuSans-13" transform="translate(190.875 0)"/>
       <use xlink:href="#DejaVuSans-13" transform="translate(254.5 0)"/>
      </g>
     </g>
    </g>
    <g id="ytick_2">
     <g id="line2d_13">
      <path d="M 55.813521 203.679002
L 396.813438 203.679002
" clip-path="url(#p00d22f4982)" style="fill: none; stroke: #b0b0b0; stroke-opacity: 0.2; stroke-width: 0.8; stroke-linecap: square"/>
     </g>
     <g id="line2d_14">
      <g>
       <use xlink:href="#m64cb1c1d46" x="55.813521" y="203.679002" style="stroke: #000000; stroke-width: 0.8"/>
      </g>
     </g>
     <g id="text_8">
      <!-- 12000 -->
      <g transform="translate(17.001021 207.47783) scale(0.1 -0.1)">
       <use xlink:href="#DejaVuSans-14"/>
       <use xlink:href="#DejaVuSans-15" transform="translate(63.625 0)"/>
       <use xlink:href="#DejaVuSans-13" transform="translate(127.25 0)"/>
       <use xlink:href="#DejaVuSans-13" transform="translate(190.875 0)"/>
       <use xlink:href="#DejaVuSans-13" transform="translate(254.5 0)"/>
      </g>
     </g>
    </g>
    <g id="ytick_3">
     <g id="line2d_15">
      <path d="M 55.813521 165.254253
L 396.813438 165.254253
" clip-path="url(#p00d22f4982)" style="fill: none; stroke: #b0b0b0; stroke-opacity: 0.2; stroke-width: 0.8; stroke-linecap: square"/>
     </g>
     <g id="line2d_16">
      <g>
       <use xlink:href="#m64cb1c1d46" x="55.813521" y="165.254253" style="stroke: #000000; stroke-width: 0.8"/>
      </g>
     </g>
     <g id="text_9">
      <!-- 12500 -->
      <g transform="translate(17.001021 169.053081) scale(0.1 -0.1)">
       <use xlink:href="#DejaVuSans-14"/>
       <use xlink:href="#DejaVuSans-15" transform="translate(63.625 0)"/>
       <use xlink:href="#DejaVuSans-18" transform="translate(127.25 0)"/>
       <use xlink:href="#DejaVuSans-13" transform="translate(190.875 0)"/>
       <use xlink:href="#DejaVuSans-13" transform="translate(254.5 0)"/>
      </g>
     </g>
    </g>
    <g id="ytick_4">
     <g id="line2d_17">
      <path d="M 55.813521 126.829503
L 396.813438 126.829503
" clip-path="url(#p00d22f4982)" style="fill: none; stroke: #b0b0b0; stroke-opacity: 0.2; stroke-width: 0.8; stroke-linecap: square"/>
     </g>
     <g id="line2d_18">
      <g>
       <use xlink:href="#m64cb1c1d46" x="55.813521" y="126.829503" style="stroke: #000000; stroke-width: 0.8"/>
      </g>
     </g>
     <g id="text_10">
      <!-- 13000 -->
      <g transform="translate(17.001021 130.628331) scale(0.1 -0.1)">
       <defs>
        <path id="DejaVuSans-16" d="M 2597 2516
Q 3050 2419 3304 2112
Q 3559 1806 3559 1356
Q 3559 666 3084 287
Q 2609 -91 1734 -91
Q 1441 -91 1130 -33
Q 819 25 488 141
L 488 750
Q 750 597 1062 519
Q 1375 441 1716 441
Q 2309 441 2620 675
Q 2931 909 2931 1356
Q 2931 1769 2642 2001
Q 2353 2234 1838 2234
L 1294 2234
L 1294 2753
L 1863 2753
Q 2328 2753 2575 2939
Q 2822 3125 2822 3475
Q 2822 3834 2567 4026
Q 2313 4219 1838 4219
Q 1578 4219 1281 4162
Q 984 4106 628 3988
L 628 4550
Q 988 4650 1302 4700
Q 1616 4750 1894 4750
Q 2613 4750 3031 4423
Q 3450 4097 3450 3541
Q 3450 3153 3228 2886
Q 3006 2619 2597 2516
z
" transform="scale(0.015625)"/>
       </defs>
       <use xlink:href="#DejaVuSans-14"/>
       <use xlink:href="#DejaVuSans-16" transform="translate(63.625 0)"/>
       <use xlink:href="#DejaVuSans-13" transform="translate(127.25 0)"/>
       <use xlink:href="#DejaVuSans-13" transform="translate(190.875 0)"/>
       <use xlink:href="#DejaVuSans-13" transform="translate(254.5 0)"/>
      </g>
     </g>
    </g>
    <g id="ytick_5">
     <g id="line2d_19">
      <path d="M 55.813521 88.404753
L 396.813438 88.404753
" clip-path="url(#p00d22f4982)" style="fill: none; stroke: #b0b0b0; stroke-opacity: 0.2; stroke-width: 0.8; stroke-linecap: square"/>
     </g>
     <g id="line2d_20">
      <g>
       <use xlink:href="#m64cb1c1d46" x="55.813521" y="88.404753" style="stroke: #000000; stroke-width: 0.8"/>
      </g>
     </g>
     <g id="text_11">
      <!-- 13500 -->
      <g transform="translate(17.001021 92.203582) scale(0.1 -0.1)">
       <use xlink:href="#DejaVuSans-14"/>
       <use xlink:href="#DejaVuSans-16" transform="translate(63.625 0)"/>
       <use xlink:href="#DejaVuSans-18" transform="translate(127.25 0)"/>
       <use xlink:href="#DejaVuSans-13" transform="translate(190.875 0)"/>
       <use xlink:href="#DejaVuSans-13" transform="translate(254.5 0)"/>
      </g>
     </g>
    </g>
    <g id="ytick_6">
     <g id="line2d_21">
      <path d="M 55.813521 49.980004
L 396.813438 49.980004
" clip-path="url(#p00d22f4982)" style="fill: none; stroke: #b0b0b0; stroke-opacity: 0.2; stroke-width: 0.8; stroke-linecap: square"/>
     </g>
     <g id="line2d_22">
      <g>
       <use xlink:href="#m64cb1c1d46" x="55.813521" y="49.980004" style="stroke: #000000; stroke-width: 0.8"/>
      </g>
     </g>
     <g id="text_12">
      <!-- 14000 -->
      <g transform="translate(17.001021 53.778832) scale(0.1 -0.1)">
       <use xlink:href="#DejaVuSans-14"/>
       <use xlink:href="#DejaVuSans-17" transform="translate(63.625 0)"/>
       <use xlink:href="#DejaVuSans-13" transform="translate(127.25 0)"/>
       <use xlink:href="#DejaVuSans-13" transform="translate(190.875 0)"/>
       <use xlink:href="#DejaVuSans-13" transform="translate(254.5 0)"/>
      </g>
     </g>
    </g>
    <g id="text_13">
     <!-- Joint makespan (s) -->
     <g transform="translate(10.598677 190.676842) rotate(-90) scale(0.1 -0.1)">
      <defs>
       <path id="DejaVuSans-2d" d="M 628 4666
L 1259 4666
L 1259 325
Q 1259 -519 939 -900
Q 619 -1281 -91 -1281
L -331 -1281
L -331 -750
L -134 -750
Q 284 -750 456 -515
Q 628 -281 628 325
L 628 4666
z
" transform="scale(0.015625)"/>
       <path id="DejaVuSans-50" d="M 3328 2828
Q 3544 3216 3844 3400
Q 4144 3584 4550 3584
Q 5097 3584 5394 3201
Q 5691 2819 5691 2113
L 5691 0
L 5113 0
L 5113 2094
Q 5113 2597 4934 2840
Q 4756 3084 4391 3084
Q 3944 3084 3684 2787
Q 3425 2491 3425 1978
L 3425 0
L 2847 0
L 2847 2094
Q 2847 2600 2669 2842
Q 2491 3084 2119 3084
Q 1678 3084 1418 2786
Q 1159 2488 1159 1978
L 1159 0
L 581 0
L 581 3500
L 1159 3500
L 1159 2956
Q 1356 3278 1631 3431
Q 1906 3584 2284 3584
Q 2666 3584 2933 3390
Q 3200 3197 3328 2828
z
" transform="scale(0.015625)"/>
       <path id="DejaVuSans-4e" d="M 581 4863
L 1159 4863
L 1159 1991
L 2875 3500
L 3609 3500
L 1753 1863
L 3688 0
L 2938 0
L 1159 1709
L 1159 0
L 581 0
L 581 4863
z
" transform="scale(0.015625)"/>
       <path id="DejaVuSans-53" d="M 1159 525
L 1159 -1331
L 581 -1331
L 581 3500
L 1159 3500
L 1159 2969
Q 1341 3281 1617 3432
Q 1894 3584 2278 3584
Q 2916 3584 3314 3078
Q 3713 2572 3713 1747
Q 3713 922 3314 415
Q 2916 -91 2278 -91
Q 1894 -91 1617 61
Q 1341 213 1159 525
z
M 3116 1747
Q 3116 2381 2855 2742
Q 2594 3103 2138 3103
Q 1681 3103 1420 2742
Q 1159 2381 1159 1747
Q 1159 1113 1420 752
Q 1681 391 2138 391
Q 2594 391 2855 752
Q 3116 1113 3116 1747
z
" transform="scale(0.015625)"/>
      </defs>
      <use xlink:href="#DejaVuSans-2d"/>
      <use xlink:href="#DejaVuSans-52" transform="translate(29.5 0)"/>
      <use xlink:href="#DejaVuSans-4c" transform="translate(90.6875 0)"/>
      <use xlink:href="#DejaVuSans-51" transform="translate(118.46875 0)"/>
      <use xlink:href="#DejaVuSans-57" transform="translate(181.84375 0)"/>
      <use xlink:href="#DejaVuSans-3" transform="translate(221.046875 0)"/>
      <use xlink:href="#DejaVuSans-50" transform="translate(252.828125 0)"/>
      <use xlink:href="#DejaVuSans-44" transform="translate(350.234375 0)"/>
      <use xlink:href="#DejaVuSans-4e" transform="translate(411.515625 0)"/>
      <use xlink:href="#DejaVuSans-48" transform="translate(465.859375 0)"/>
      <use xlink:href="#DejaVuSans-56" transform="translate(527.390625 0)"/>
      <use xlink:href="#DejaVuSans-53" transform="translate(579.484375 0)"/>
      <use xlink:href="#DejaVuSans-44" transform="translate(642.96875 0)"/>
      <use xlink:href="#DejaVuSans-51" transform="translate(704.25 0)"/>
      <use xlink:href="#DejaVuSans-3" transform="translate(767.625 0)"/>
      <use xlink:href="#DejaVuSans-b" transform="translate(799.40625 0)"/>
      <use xlink:href="#DejaVuSans-56" transform="translate(838.421875 0)"/>
      <use xlink:href="#DejaVuSans-c" transform="translate(890.515625 0)"/>
     </g>
    </g>
   </g>
   <g id="patch_3">
    <path d="M 55.813521 268.398979
L 55.813521 20.001579
" style="fill: none; stroke: #000000; stroke-width: 0.8; stroke-linejoin: miter; stroke-linecap: square"/>
   </g>
   <g id="patch_4">
    <path d="M 396.813438 268.398979
L 396.813438 20.001579
" style="fill: none; stroke: #000000; stroke-width: 0.8; stroke-linejoin: miter; stroke-linecap: square"/>
   </g>
   <g id="patch_5">
    <path d="M 55.813521 268.398979
L 396.813438 268.398979
" style="fill: none; stroke: #000000; stroke-width: 0.8; stroke-linejoin: miter; stroke-linecap: square"/>
   </g>
   <g id="patch_6">
    <path d="M 55.813521 20.001579
L 396.813438 20.001579
" style="fill: none; stroke: #000000; stroke-width: 0.8; stroke-linejoin: miter; stroke-linecap: square"/>
   </g>
   <g id="legend_1">
    <g id="patch_7">
     <path d="M 61.413521 62.403454
L 194.668521 62.403454
Q 196.268521 62.403454 196.268521 60.803454
L 196.268521 25.601579
Q 196.268521 24.001579 194.668521 24.001579
L 61.413521 24.001579
Q 59.813521 24.001579 59.813521 25.601579
L 59.813521 60.803454
Q 59.813521 62.403454 61.413521 62.403454
z
" style="fill: #ffffff; opacity: 0.8; stroke: #cccccc; stroke-linejoin: miter"/>
    </g>
    <g id="PathCollection_4">
     <g>
      <use xlink:href="#m7eb242b997" x="71.013521" y="31.180329" style="fill: #2675b8; fill-opacity: 0.85; stroke: #2675b8; stroke-opacity: 0.85"/>
     </g>
    </g>
    <g id="text_14">
     <!-- Gamma = 0 dB (8 points) -->
     <g transform="translate(85.413521 33.280329) scale(0.08 -0.08)">
      <defs>
       <path id="DejaVuSans-2a" d="M 3809 666
L 3809 1919
L 2778 1919
L 2778 2438
L 4434 2438
L 4434 434
Q 4069 175 3628 42
Q 3188 -91 2688 -91
Q 1594 -91 976 548
Q 359 1188 359 2328
Q 359 3472 976 4111
Q 1594 4750 2688 4750
Q 3144 4750 3555 4637
Q 3966 4525 4313 4306
L 4313 3634
Q 3963 3931 3569 4081
Q 3175 4231 2741 4231
Q 1884 4231 1454 3753
Q 1025 3275 1025 2328
Q 1025 1384 1454 906
Q 1884 428 2741 428
Q 3075 428 3337 486
Q 3600 544 3809 666
z
" transform="scale(0.015625)"/>
       <path id="DejaVuSans-20" d="M 678 2906
L 4684 2906
L 4684 2381
L 678 2381
L 678 2906
z
M 678 1631
L 4684 1631
L 4684 1100
L 678 1100
L 678 1631
z
" transform="scale(0.015625)"/>
       <path id="DejaVuSans-25" d="M 1259 2228
L 1259 519
L 2272 519
Q 2781 519 3026 730
Q 3272 941 3272 1375
Q 3272 1813 3026 2020
Q 2781 2228 2272 2228
L 1259 2228
z
M 1259 4147
L 1259 2741
L 2194 2741
Q 2656 2741 2882 2914
Q 3109 3088 3109 3444
Q 3109 3797 2882 3972
Q 2656 4147 2194 4147
L 1259 4147
z
M 628 4666
L 2241 4666
Q 2963 4666 3353 4366
Q 3744 4066 3744 3513
Q 3744 3084 3544 2831
Q 3344 2578 2956 2516
Q 3422 2416 3680 2098
Q 3938 1781 3938 1306
Q 3938 681 3513 340
Q 3088 0 2303 0
L 628 0
L 628 4666
z
" transform="scale(0.015625)"/>
      </defs>
      <use xlink:href="#DejaVuSans-2a"/>
      <use xlink:href="#DejaVuSans-44" transform="translate(77.484375 0)"/>
      <use xlink:href="#DejaVuSans-50" transform="translate(138.765625 0)"/>
      <use xlink:href="#DejaVuSans-50" transform="translate(236.171875 0)"/>
      <use xlink:href="#DejaVuSans-44" transform="translate(333.578125 0)"/>
      <use xlink:href="#DejaVuSans-3" transform="translate(394.859375 0)"/>
      <use xlink:href="#DejaVuSans-20" transform="translate(426.640625 0)"/>
      <use xlink:href="#DejaVuSans-3" transform="translate(510.4375 0)"/>
      <use xlink:href="#DejaVuSans-13" transform="translate(542.21875 0)"/>
      <use xlink:href="#DejaVuSans-3" transform="translate(605.84375 0)"/>
      <use xlink:href="#DejaVuSans-47" transform="translate(637.625 0)"/>
      <use xlink:href="#DejaVuSans-25" transform="translate(701.109375 0)"/>
      <use xlink:href="#DejaVuSans-3" transform="translate(769.71875 0)"/>
      <use xlink:href="#DejaVuSans-b" transform="translate(801.5 0)"/>
      <use xlink:href="#DejaVuSans-1b" transform="translate(840.515625 0)"/>
      <use xlink:href="#DejaVuSans-3" transform="translate(904.140625 0)"/>
      <use xlink:href="#DejaVuSans-53" transform="translate(935.921875 0)"/>
      <use xlink:href="#DejaVuSans-52" transform="translate(999.40625 0)"/>
      <use xlink:href="#DejaVuSans-4c" transform="translate(1060.59375 0)"/>
      <use xlink:href="#DejaVuSans-51" transform="translate(1088.375 0)"/>
      <use xlink:href="#DejaVuSans-57" transform="translate(1151.75 0)"/>
      <use xlink:href="#DejaVuSans-56" transform="translate(1190.953125 0)"/>
      <use xlink:href="#DejaVuSans-c" transform="translate(1243.046875 0)"/>
     </g>
    </g>
    <g id="PathCollection_5">
     <g>
      <use xlink:href="#m360265c299" x="71.013521" y="43.180954" style="fill: #dc8a21; fill-opacity: 0.85; stroke: #dc8a21; stroke-opacity: 0.85"/>
     </g>
    </g>
    <g id="text_15">
     <!-- Gamma = 2 dB (5 points) -->
     <g transform="translate(85.413521 45.280954) scale(0.08 -0.08)">
      <use xlink:href="#DejaVuSans-2a"/>
      <use xlink:href="#DejaVuSans-44" transform="translate(77.484375 0)"/>
      <use xlink:href="#DejaVuSans-50" transform="translate(138.765625 0)"/>
      <use xlink:href="#DejaVuSans-50" transform="translate(236.171875 0)"/>
      <use xlink:href="#DejaVuSans-44" transform="translate(333.578125 0)"/>
      <use xlink:href="#DejaVuSans-3" transform="translate(394.859375 0)"/>
      <use xlink:href="#DejaVuSans-20" transform="translate(426.640625 0)"/>
      <use xlink:href="#DejaVuSans-3" transform="translate(510.4375 0)"/>
      <use xlink:href="#DejaVuSans-15" transform="translate(542.21875 0)"/>
      <use xlink:href="#DejaVuSans-3" transform="translate(605.84375 0)"/>
      <use xlink:href="#DejaVuSans-47" transform="translate(637.625 0)"/>
      <use xlink:href="#DejaVuSans-25" transform="translate(701.109375 0)"/>
      <use xlink:href="#DejaVuSans-3" transform="translate(769.71875 0)"/>
      <use xlink:href="#DejaVuSans-b" transform="translate(801.5 0)"/>
      <use xlink:href="#DejaVuSans-18" transform="translate(840.515625 0)"/>
      <use xlink:href="#DejaVuSans-3" transform="translate(904.140625 0)"/>
      <use xlink:href="#DejaVuSans-53" transform="translate(935.921875 0)"/>
      <use xlink:href="#DejaVuSans-52" transform="translate(999.40625 0)"/>
      <use xlink:href="#DejaVuSans-4c" transform="translate(1060.59375 0)"/>
      <use xlink:href="#DejaVuSans-51" transform="translate(1088.375 0)"/>
      <use xlink:href="#DejaVuSans-57" transform="translate(1151.75 0)"/>
      <use xlink:href="#DejaVuSans-56" transform="translate(1190.953125 0)"/>
      <use xlink:href="#DejaVuSans-c" transform="translate(1243.046875 0)"/>
     </g>
    </g>
    <g id="PathCollection_6">
     <g>
      <use xlink:href="#mf777fd573c" x="71.013521" y="55.181579" style="fill: #a4489e; fill-opacity: 0.85; stroke: #a4489e; stroke-opacity: 0.85"/>
     </g>
    </g>
    <g id="text_16">
     <!-- Gamma = 4 dB (10 points) -->
     <g transform="translate(85.413521 57.281579) scale(0.08 -0.08)">
      <use xlink:href="#DejaVuSans-2a"/>
      <use xlink:href="#DejaVuSans-44" transform="translate(77.484375 0)"/>
      <use xlink:href="#DejaVuSans-50" transform="translate(138.765625 0)"/>
      <use xlink:href="#DejaVuSans-50" transform="translate(236.171875 0)"/>
      <use xlink:href="#DejaVuSans-44" transform="translate(333.578125 0)"/>
      <use xlink:href="#DejaVuSans-3" transform="translate(394.859375 0)"/>
      <use xlink:href="#DejaVuSans-20" transform="translate(426.640625 0)"/>
      <use xlink:href="#DejaVuSans-3" transform="translate(510.4375 0)"/>
      <use xlink:href="#DejaVuSans-17" transform="translate(542.21875 0)"/>
      <use xlink:href="#DejaVuSans-3" transform="translate(605.84375 0)"/>
      <use xlink:href="#DejaVuSans-47" transform="translate(637.625 0)"/>
      <use xlink:href="#DejaVuSans-25" transform="translate(701.109375 0)"/>
      <use xlink:href="#DejaVuSans-3" transform="translate(769.71875 0)"/>
      <use xlink:href="#DejaVuSans-b" transform="translate(801.5 0)"/>
      <use xlink:href="#DejaVuSans-14" transform="translate(840.515625 0)"/>
      <use xlink:href="#DejaVuSans-13" transform="translate(904.140625 0)"/>
      <use xlink:href="#DejaVuSans-3" transform="translate(967.765625 0)"/>
      <use xlink:href="#DejaVuSans-53" transform="translate(999.546875 0)"/>
      <use xlink:href="#DejaVuSans-52" transform="translate(1063.03125 0)"/>
      <use xlink:href="#DejaVuSans-4c" transform="translate(1124.21875 0)"/>
      <use xlink:href="#DejaVuSans-51" transform="translate(1152 0)"/>
      <use xlink:href="#DejaVuSans-57" transform="translate(1215.375 0)"/>
      <use xlink:href="#DejaVuSans-56" transform="translate(1254.578125 0)"/>
      <use xlink:href="#DejaVuSans-c" transform="translate(1306.671875 0)"/>
     </g>
    </g>
   </g>
  </g>
  <g id="axes_2">
   <g id="patch_8">
    <path d="M 447.999844 268.398979
L 788.99976 268.398979
L 788.99976 20.001579
L 447.999844 20.001579
z
" style="fill: #ffffff"/>
   </g>
   <g id="PathCollection_7">
    <g clip-path="url(#p84af67bb67)">
     <use xlink:href="#m7eb242b997" x="463.49984" y="152.011065" style="fill: #2675b8; fill-opacity: 0.85; stroke: #2675b8; stroke-opacity: 0.85"/>
     <use xlink:href="#m7eb242b997" x="463.49984" y="152.011065" style="fill: #2675b8; fill-opacity: 0.85; stroke: #2675b8; stroke-opacity: 0.85"/>
     <use xlink:href="#m7eb242b997" x="463.49984" y="164.663773" style="fill: #2675b8; fill-opacity: 0.85; stroke: #2675b8; stroke-opacity: 0.85"/>
     <use xlink:href="#m7eb242b997" x="463.794958" y="165.769386" style="fill: #2675b8; fill-opacity: 0.85; stroke: #2675b8; stroke-opacity: 0.85"/>
     <use xlink:href="#m7eb242b997" x="463.887034" y="171.647002" style="fill: #2675b8; fill-opacity: 0.85; stroke: #2675b8; stroke-opacity: 0.85"/>
     <use xlink:href="#m7eb242b997" x="463.913805" y="244.246544" style="fill: #2675b8; fill-opacity: 0.85; stroke: #2675b8; stroke-opacity: 0.85"/>
     <use xlink:href="#m7eb242b997" x="463.913805" y="257.021776" style="fill: #2675b8; fill-opacity: 0.85; stroke: #2675b8; stroke-opacity: 0.85"/>
     <use xlink:href="#m7eb242b997" x="464.007127" y="257.108188" style="fill: #2675b8; fill-opacity: 0.85; stroke: #2675b8; stroke-opacity: 0.85"/>
    </g>
   </g>
   <g id="PathCollection_8">
    <g clip-path="url(#p84af67bb67)">
     <use xlink:href="#m360265c299" x="541.63486" y="154.601193" style="fill: #dc8a21; fill-opacity: 0.85; stroke: #dc8a21; stroke-opacity: 0.85"/>
     <use xlink:href="#m360265c299" x="541.64043" y="155.239472" style="fill: #dc8a21; fill-opacity: 0.85; stroke: #dc8a21; stroke-opacity: 0.85"/>
     <use xlink:href="#m360265c299" x="541.76953" y="154.709781" style="fill: #dc8a21; fill-opacity: 0.85; stroke: #dc8a21; stroke-opacity: 0.85"/>
     <use xlink:href="#m360265c299" x="541.82847" y="157.871305" style="fill: #dc8a21; fill-opacity: 0.85; stroke: #dc8a21; stroke-opacity: 0.85"/>
     <use xlink:href="#m360265c299" x="541.900985" y="157.957717" style="fill: #dc8a21; fill-opacity: 0.85; stroke: #dc8a21; stroke-opacity: 0.85"/>
    </g>
   </g>
   <g id="PathCollection_9">
    <g clip-path="url(#p84af67bb67)">
     <use xlink:href="#mf777fd573c" x="742.394521" y="31.29237" style="fill: #a4489e; fill-opacity: 0.85; stroke: #a4489e; stroke-opacity: 0.85"/>
     <use xlink:href="#mf777fd573c" x="742.967934" y="31.754424" style="fill: #a4489e; fill-opacity: 0.85; stroke: #a4489e; stroke-opacity: 0.85"/>
     <use xlink:href="#mf777fd573c" x="758.067412" y="62.330674" style="fill: #a4489e; fill-opacity: 0.85; stroke: #a4489e; stroke-opacity: 0.85"/>
     <use xlink:href="#mf777fd573c" x="758.067412" y="63.819519" style="fill: #a4489e; fill-opacity: 0.85; stroke: #a4489e; stroke-opacity: 0.85"/>
     <use xlink:href="#mf777fd573c" x="758.067412" y="65.732128" style="fill: #a4489e; fill-opacity: 0.85; stroke: #a4489e; stroke-opacity: 0.85"/>
     <use xlink:href="#mf777fd573c" x="773.499764" y="72.484156" style="fill: #a4489e; fill-opacity: 0.85; stroke: #a4489e; stroke-opacity: 0.85"/>
     <use xlink:href="#mf777fd573c" x="773.499764" y="70.081223" style="fill: #a4489e; fill-opacity: 0.85; stroke: #a4489e; stroke-opacity: 0.85"/>
     <use xlink:href="#mf777fd573c" x="773.499764" y="73.619254" style="fill: #a4489e; fill-opacity: 0.85; stroke: #a4489e; stroke-opacity: 0.85"/>
     <use xlink:href="#mf777fd573c" x="773.499764" y="77.025631" style="fill: #a4489e; fill-opacity: 0.85; stroke: #a4489e; stroke-opacity: 0.85"/>
     <use xlink:href="#mf777fd573c" x="773.499764" y="67.176231" style="fill: #a4489e; fill-opacity: 0.85; stroke: #a4489e; stroke-opacity: 0.85"/>
    </g>
   </g>
   <g id="matplotlib.axis_3">
    <g id="xtick_6">
     <g id="line2d_23">
      <path d="M 501.82731 268.398979
L 501.82731 20.001579
" clip-path="url(#p84af67bb67)" style="fill: none; stroke: #b0b0b0; stroke-opacity: 0.2; stroke-width: 0.8; stroke-linecap: square"/>
     </g>
     <g id="line2d_24">
      <g>
       <use xlink:href="#m69be20b197" x="501.82731" y="268.398979" style="stroke: #000000; stroke-width: 0.8"/>
      </g>
     </g>
     <g id="text_17">
      <!-- 200 -->
      <g transform="translate(492.28356 282.996635) scale(0.1 -0.1)">
       <use xlink:href="#DejaVuSans-15"/>
       <use xlink:href="#DejaVuSans-13" transform="translate(63.625 0)"/>
       <use xlink:href="#DejaVuSans-13" transform="translate(127.25 0)"/>
      </g>
     </g>
    </g>
    <g id="xtick_7">
     <g id="line2d_25">
      <path d="M 569.666593 268.398979
L 569.666593 20.001579
" clip-path="url(#p84af67bb67)" style="fill: none; stroke: #b0b0b0; stroke-opacity: 0.2; stroke-width: 0.8; stroke-linecap: square"/>
     </g>
     <g id="line2d_26">
      <g>
       <use xlink:href="#m69be20b197" x="569.666593" y="268.398979" style="stroke: #000000; stroke-width: 0.8"/>
      </g>
     </g>
     <g id="text_18">
      <!-- 400 -->
      <g transform="translate(560.122843 282.996635) scale(0.1 -0.1)">
       <use xlink:href="#DejaVuSans-17"/>
       <use xlink:href="#DejaVuSans-13" transform="translate(63.625 0)"/>
       <use xlink:href="#DejaVuSans-13" transform="translate(127.25 0)"/>
      </g>
     </g>
    </g>
    <g id="xtick_8">
     <g id="line2d_27">
      <path d="M 637.505876 268.398979
L 637.505876 20.001579
" clip-path="url(#p84af67bb67)" style="fill: none; stroke: #b0b0b0; stroke-opacity: 0.2; stroke-width: 0.8; stroke-linecap: square"/>
     </g>
     <g id="line2d_28">
      <g>
       <use xlink:href="#m69be20b197" x="637.505876" y="268.398979" style="stroke: #000000; stroke-width: 0.8"/>
      </g>
     </g>
     <g id="text_19">
      <!-- 600 -->
      <g transform="translate(627.962126 282.996635) scale(0.1 -0.1)">
       <use xlink:href="#DejaVuSans-19"/>
       <use xlink:href="#DejaVuSans-13" transform="translate(63.625 0)"/>
       <use xlink:href="#DejaVuSans-13" transform="translate(127.25 0)"/>
      </g>
     </g>
    </g>
    <g id="xtick_9">
     <g id="line2d_29">
      <path d="M 705.345159 268.398979
L 705.345159 20.001579
" clip-path="url(#p84af67bb67)" style="fill: none; stroke: #b0b0b0; stroke-opacity: 0.2; stroke-width: 0.8; stroke-linecap: square"/>
     </g>
     <g id="line2d_30">
      <g>
       <use xlink:href="#m69be20b197" x="705.345159" y="268.398979" style="stroke: #000000; stroke-width: 0.8"/>
      </g>
     </g>
     <g id="text_20">
      <!-- 800 -->
      <g transform="translate(695.801409 282.996635) scale(0.1 -0.1)">
       <use xlink:href="#DejaVuSans-1b"/>
       <use xlink:href="#DejaVuSans-13" transform="translate(63.625 0)"/>
       <use xlink:href="#DejaVuSans-13" transform="translate(127.25 0)"/>
      </g>
     </g>
    </g>
    <g id="xtick_10">
     <g id="line2d_31">
      <path d="M 773.184442 268.398979
L 773.184442 20.001579
" clip-path="url(#p84af67bb67)" style="fill: none; stroke: #b0b0b0; stroke-opacity: 0.2; stroke-width: 0.8; stroke-linecap: square"/>
     </g>
     <g id="line2d_32">
      <g>
       <use xlink:href="#m69be20b197" x="773.184442" y="268.398979" style="stroke: #000000; stroke-width: 0.8"/>
      </g>
     </g>
     <g id="text_21">
      <!-- 1000 -->
      <g transform="translate(760.459442 282.996635) scale(0.1 -0.1)">
       <use xlink:href="#DejaVuSans-14"/>
       <use xlink:href="#DejaVuSans-13" transform="translate(63.625 0)"/>
       <use xlink:href="#DejaVuSans-13" transform="translate(127.25 0)"/>
       <use xlink:href="#DejaVuSans-13" transform="translate(190.875 0)"/>
      </g>
     </g>
    </g>
    <g id="text_22">
     <!-- Weighted lateness (thousand weighted seconds) -->
     <g transform="translate(496.712302 296.997416) scale(0.1 -0.1)">
      <use xlink:href="#DejaVuSans-3a"/>
      <use xlink:href="#DejaVuSans-48" transform="translate(93.015625 0)"/>
      <use xlink:href="#DejaVuSans-4c" transform="translate(154.546875 0)"/>
      <use xlink:href="#DejaVuSans-4a" transform="translate(182.328125 0)"/>
      <use xlink:href="#DejaVuSans-4b" transform="translate(245.8125 0)"/>
      <use xlink:href="#DejaVuSans-57" transform="translate(309.1875 0)"/>
      <use xlink:href="#DejaVuSans-48" transform="translate(348.390625 0)"/>
      <use xlink:href="#DejaVuSans-47" transform="translate(409.921875 0)"/>
      <use xlink:href="#DejaVuSans-3" transform="translate(473.40625 0)"/>
      <use xlink:href="#DejaVuSans-4f" transform="translate(505.1875 0)"/>
      <use xlink:href="#DejaVuSans-44" transform="translate(532.96875 0)"/>
      <use xlink:href="#DejaVuSans-57" transform="translate(594.25 0)"/>
      <use xlink:href="#DejaVuSans-48" transform="translate(633.453125 0)"/>
      <use xlink:href="#DejaVuSans-51" transform="translate(694.984375 0)"/>
      <use xlink:href="#DejaVuSans-48" transform="translate(758.359375 0)"/>
      <use xlink:href="#DejaVuSans-56" transform="translate(819.890625 0)"/>
      <use xlink:href="#DejaVuSans-56" transform="translate(871.984375 0)"/>
      <use xlink:href="#DejaVuSans-3" transform="translate(924.078125 0)"/>
      <use xlink:href="#DejaVuSans-b" transform="translate(955.859375 0)"/>
      <use xlink:href="#DejaVuSans-57" transform="translate(994.875 0)"/>
      <use xlink:href="#DejaVuSans-4b" transform="translate(1034.078125 0)"/>
      <use xlink:href="#DejaVuSans-52" transform="translate(1097.453125 0)"/>
      <use xlink:href="#DejaVuSans-58" transform="translate(1158.640625 0)"/>
      <use xlink:href="#DejaVuSans-56" transform="translate(1222.015625 0)"/>
      <use xlink:href="#DejaVuSans-44" transform="translate(1274.109375 0)"/>
      <use xlink:href="#DejaVuSans-51" transform="translate(1335.390625 0)"/>
      <use xlink:href="#DejaVuSans-47" transform="translate(1398.765625 0)"/>
      <use xlink:href="#DejaVuSans-3" transform="translate(1462.25 0)"/>
      <use xlink:href="#DejaVuSans-5a" transform="translate(1494.03125 0)"/>
      <use xlink:href="#DejaVuSans-48" transform="translate(1575.8125 0)"/>
      <use xlink:href="#DejaVuSans-4c" transform="translate(1637.34375 0)"/>
      <use xlink:href="#DejaVuSans-4a" transform="translate(1665.125 0)"/>
      <use xlink:href="#DejaVuSans-4b" transform="translate(1728.609375 0)"/>
      <use xlink:href="#DejaVuSans-57" transform="translate(1791.984375 0)"/>
      <use xlink:href="#DejaVuSans-48" transform="translate(1831.1875 0)"/>
      <use xlink:href="#DejaVuSans-47" transform="translate(1892.71875 0)"/>
      <use xlink:href="#DejaVuSans-3" transform="translate(1956.203125 0)"/>
      <use xlink:href="#DejaVuSans-56" transform="translate(1987.984375 0)"/>
      <use xlink:href="#DejaVuSans-48" transform="translate(2040.078125 0)"/>
      <use xlink:href="#DejaVuSans-46" transform="translate(2101.609375 0)"/>
      <use xlink:href="#DejaVuSans-52" transform="translate(2156.59375 0)"/>
      <use xlink:href="#DejaVuSans-51" transform="translate(2217.78125 0)"/>
      <use xlink:href="#DejaVuSans-47" transform="translate(2281.15625 0)"/>
      <use xlink:href="#DejaVuSans-56" transform="translate(2344.640625 0)"/>
      <use xlink:href="#DejaVuSans-c" transform="translate(2396.734375 0)"/>
     </g>
    </g>
   </g>
   <g id="matplotlib.axis_4">
    <g id="ytick_7">
     <g id="line2d_33">
      <path d="M 447.999844 240.296947
L 788.99976 240.296947
" clip-path="url(#p84af67bb67)" style="fill: none; stroke: #b0b0b0; stroke-opacity: 0.2; stroke-width: 0.8; stroke-linecap: square"/>
     </g>
     <g id="line2d_34">
      <g>
       <use xlink:href="#m64cb1c1d46" x="447.999844" y="240.296947" style="stroke: #000000; stroke-width: 0.8"/>
      </g>
     </g>
     <g id="text_23">
      <!-- 78.4 -->
      <g transform="translate(418.734219 244.095775) scale(0.1 -0.1)">
       <defs>
        <path id="DejaVuSans-1a" d="M 525 4666
L 3525 4666
L 3525 4397
L 1831 0
L 1172 0
L 2766 4134
L 525 4134
L 525 4666
z
" transform="scale(0.015625)"/>
        <path id="DejaVuSans-11" d="M 684 794
L 1344 794
L 1344 0
L 684 0
L 684 794
z
" transform="scale(0.015625)"/>
       </defs>
       <use xlink:href="#DejaVuSans-1a"/>
       <use xlink:href="#DejaVuSans-1b" transform="translate(63.625 0)"/>
       <use xlink:href="#DejaVuSans-11" transform="translate(127.25 0)"/>
       <use xlink:href="#DejaVuSans-17" transform="translate(159.03125 0)"/>
      </g>
     </g>
    </g>
    <g id="ytick_8">
     <g id="line2d_35">
      <path d="M 447.999844 198.471277
L 788.99976 198.471277
" clip-path="url(#p84af67bb67)" style="fill: none; stroke: #b0b0b0; stroke-opacity: 0.2; stroke-width: 0.8; stroke-linecap: square"/>
     </g>
     <g id="line2d_36">
      <g>
       <use xlink:href="#m64cb1c1d46" x="447.999844" y="198.471277" style="stroke: #000000; stroke-width: 0.8"/>
      </g>
     </g>
     <g id="text_24">
      <!-- 78.6 -->
      <g transform="translate(418.734219 202.270105) scale(0.1 -0.1)">
       <use xlink:href="#DejaVuSans-1a"/>
       <use xlink:href="#DejaVuSans-1b" transform="translate(63.625 0)"/>
       <use xlink:href="#DejaVuSans-11" transform="translate(127.25 0)"/>
       <use xlink:href="#DejaVuSans-19" transform="translate(159.03125 0)"/>
      </g>
     </g>
    </g>
    <g id="ytick_9">
     <g id="line2d_37">
      <path d="M 447.999844 156.645606
L 788.99976 156.645606
" clip-path="url(#p84af67bb67)" style="fill: none; stroke: #b0b0b0; stroke-opacity: 0.2; stroke-width: 0.8; stroke-linecap: square"/>
     </g>
     <g id="line2d_38">
      <g>
       <use xlink:href="#m64cb1c1d46" x="447.999844" y="156.645606" style="stroke: #000000; stroke-width: 0.8"/>
      </g>
     </g>
     <g id="text_25">
      <!-- 78.8 -->
      <g transform="translate(418.734219 160.444434) scale(0.1 -0.1)">
       <use xlink:href="#DejaVuSans-1a"/>
       <use xlink:href="#DejaVuSans-1b" transform="translate(63.625 0)"/>
       <use xlink:href="#DejaVuSans-11" transform="translate(127.25 0)"/>
       <use xlink:href="#DejaVuSans-1b" transform="translate(159.03125 0)"/>
      </g>
     </g>
    </g>
    <g id="ytick_10">
     <g id="line2d_39">
      <path d="M 447.999844 114.819935
L 788.99976 114.819935
" clip-path="url(#p84af67bb67)" style="fill: none; stroke: #b0b0b0; stroke-opacity: 0.2; stroke-width: 0.8; stroke-linecap: square"/>
     </g>
     <g id="line2d_40">
      <g>
       <use xlink:href="#m64cb1c1d46" x="447.999844" y="114.819935" style="stroke: #000000; stroke-width: 0.8"/>
      </g>
     </g>
     <g id="text_26">
      <!-- 79.0 -->
      <g transform="translate(418.734219 118.618763) scale(0.1 -0.1)">
       <defs>
        <path id="DejaVuSans-1c" d="M 703 97
L 703 672
Q 941 559 1184 500
Q 1428 441 1663 441
Q 2288 441 2617 861
Q 2947 1281 2994 2138
Q 2813 1869 2534 1725
Q 2256 1581 1919 1581
Q 1219 1581 811 2004
Q 403 2428 403 3163
Q 403 3881 828 4315
Q 1253 4750 1959 4750
Q 2769 4750 3195 4129
Q 3622 3509 3622 2328
Q 3622 1225 3098 567
Q 2575 -91 1691 -91
Q 1453 -91 1209 -44
Q 966 3 703 97
z
M 1959 2075
Q 2384 2075 2632 2365
Q 2881 2656 2881 3163
Q 2881 3666 2632 3958
Q 2384 4250 1959 4250
Q 1534 4250 1286 3958
Q 1038 3666 1038 3163
Q 1038 2656 1286 2365
Q 1534 2075 1959 2075
z
" transform="scale(0.015625)"/>
       </defs>
       <use xlink:href="#DejaVuSans-1a"/>
       <use xlink:href="#DejaVuSans-1c" transform="translate(63.625 0)"/>
       <use xlink:href="#DejaVuSans-11" transform="translate(127.25 0)"/>
       <use xlink:href="#DejaVuSans-13" transform="translate(159.03125 0)"/>
      </g>
     </g>
    </g>
    <g id="ytick_11">
     <g id="line2d_41">
      <path d="M 447.999844 72.994264
L 788.99976 72.994264
" clip-path="url(#p84af67bb67)" style="fill: none; stroke: #b0b0b0; stroke-opacity: 0.2; stroke-width: 0.8; stroke-linecap: square"/>
     </g>
     <g id="line2d_42">
      <g>
       <use xlink:href="#m64cb1c1d46" x="447.999844" y="72.994264" style="stroke: #000000; stroke-width: 0.8"/>
      </g>
     </g>
     <g id="text_27">
      <!-- 79.2 -->
      <g transform="translate(418.734219 76.793092) scale(0.1 -0.1)">
       <use xlink:href="#DejaVuSans-1a"/>
       <use xlink:href="#DejaVuSans-1c" transform="translate(63.625 0)"/>
       <use xlink:href="#DejaVuSans-11" transform="translate(127.25 0)"/>
       <use xlink:href="#DejaVuSans-15" transform="translate(159.03125 0)"/>
      </g>
     </g>
    </g>
    <g id="ytick_12">
     <g id="line2d_43">
      <path d="M 447.999844 31.168594
L 788.99976 31.168594
" clip-path="url(#p84af67bb67)" style="fill: none; stroke: #b0b0b0; stroke-opacity: 0.2; stroke-width: 0.8; stroke-linecap: square"/>
     </g>
     <g id="line2d_44">
      <g>
       <use xlink:href="#m64cb1c1d46" x="447.999844" y="31.168594" style="stroke: #000000; stroke-width: 0.8"/>
      </g>
     </g>
     <g id="text_28">
      <!-- 79.4 -->
      <g transform="translate(418.734219 34.967422) scale(0.1 -0.1)">
       <use xlink:href="#DejaVuSans-1a"/>
       <use xlink:href="#DejaVuSans-1c" transform="translate(63.625 0)"/>
       <use xlink:href="#DejaVuSans-11" transform="translate(127.25 0)"/>
       <use xlink:href="#DejaVuSans-17" transform="translate(159.03125 0)"/>
      </g>
     </g>
    </g>
    <g id="text_29">
     <!-- Total energy (kWh) -->
     <g transform="translate(412.331875 191.38856) rotate(-90) scale(0.1 -0.1)">
      <defs>
       <path id="DejaVuSans-37" d="M -19 4666
L 3928 4666
L 3928 4134
L 2272 4134
L 2272 0
L 1638 0
L 1638 4134
L -19 4134
L -19 4666
z
" transform="scale(0.015625)"/>
       <path id="DejaVuSans-55" d="M 2631 2963
Q 2534 3019 2420 3045
Q 2306 3072 2169 3072
Q 1681 3072 1420 2755
Q 1159 2438 1159 1844
L 1159 0
L 581 0
L 581 3500
L 1159 3500
L 1159 2956
Q 1341 3275 1631 3429
Q 1922 3584 2338 3584
Q 2397 3584 2469 3576
Q 2541 3569 2628 3553
L 2631 2963
z
" transform="scale(0.015625)"/>
       <path id="DejaVuSans-5c" d="M 2059 -325
Q 1816 -950 1584 -1140
Q 1353 -1331 966 -1331
L 506 -1331
L 506 -850
L 844 -850
Q 1081 -850 1212 -737
Q 1344 -625 1503 -206
L 1606 56
L 191 3500
L 800 3500
L 1894 763
L 2988 3500
L 3597 3500
L 2059 -325
z
" transform="scale(0.015625)"/>
      </defs>
      <use xlink:href="#DejaVuSans-37"/>
      <use xlink:href="#DejaVuSans-52" transform="translate(44.09375 0)"/>
      <use xlink:href="#DejaVuSans-57" transform="translate(105.28125 0)"/>
      <use xlink:href="#DejaVuSans-44" transform="translate(144.484375 0)"/>
      <use xlink:href="#DejaVuSans-4f" transform="translate(205.765625 0)"/>
      <use xlink:href="#DejaVuSans-3" transform="translate(233.546875 0)"/>
      <use xlink:href="#DejaVuSans-48" transform="translate(265.328125 0)"/>
      <use xlink:href="#DejaVuSans-51" transform="translate(326.859375 0)"/>
      <use xlink:href="#DejaVuSans-48" transform="translate(390.234375 0)"/>
      <use xlink:href="#DejaVuSans-55" transform="translate(451.765625 0)"/>
      <use xlink:href="#DejaVuSans-4a" transform="translate(491.125 0)"/>
      <use xlink:href="#DejaVuSans-5c" transform="translate(554.609375 0)"/>
      <use xlink:href="#DejaVuSans-3" transform="translate(613.796875 0)"/>
      <use xlink:href="#DejaVuSans-b" transform="translate(645.578125 0)"/>
      <use xlink:href="#DejaVuSans-4e" transform="translate(684.59375 0)"/>
      <use xlink:href="#DejaVuSans-3a" transform="translate(742.5 0)"/>
      <use xlink:href="#DejaVuSans-4b" transform="translate(841.375 0)"/>
      <use xlink:href="#DejaVuSans-c" transform="translate(904.75 0)"/>
     </g>
    </g>
   </g>
   <g id="patch_9">
    <path d="M 447.999844 268.398979
L 447.999844 20.001579
" style="fill: none; stroke: #000000; stroke-width: 0.8; stroke-linejoin: miter; stroke-linecap: square"/>
   </g>
   <g id="patch_10">
    <path d="M 788.99976 268.398979
L 788.99976 20.001579
" style="fill: none; stroke: #000000; stroke-width: 0.8; stroke-linejoin: miter; stroke-linecap: square"/>
   </g>
   <g id="patch_11">
    <path d="M 447.999844 268.398979
L 788.99976 268.398979
" style="fill: none; stroke: #000000; stroke-width: 0.8; stroke-linejoin: miter; stroke-linecap: square"/>
   </g>
   <g id="patch_12">
    <path d="M 447.999844 20.001579
L 788.99976 20.001579
" style="fill: none; stroke: #000000; stroke-width: 0.8; stroke-linejoin: miter; stroke-linecap: square"/>
   </g>
  </g>
  <g id="text_30">
   <!-- Validated bounded Pareto families; Gamma = 6 dB: no executable witness found -->
   <g transform="translate(173.545625 11.358521) scale(0.11 -0.11)">
    <defs>
     <path id="DejaVuSans-39" d="M 1831 0
L 50 4666
L 709 4666
L 2188 738
L 3669 4666
L 4325 4666
L 2547 0
L 1831 0
z
" transform="scale(0.015625)"/>
     <path id="DejaVuSans-45" d="M 3116 1747
Q 3116 2381 2855 2742
Q 2594 3103 2138 3103
Q 1681 3103 1420 2742
Q 1159 2381 1159 1747
Q 1159 1113 1420 752
Q 1681 391 2138 391
Q 2594 391 2855 752
Q 3116 1113 3116 1747
z
M 1159 2969
Q 1341 3281 1617 3432
Q 1894 3584 2278 3584
Q 2916 3584 3314 3078
Q 3713 2572 3713 1747
Q 3713 922 3314 415
Q 2916 -91 2278 -91
Q 1894 -91 1617 61
Q 1341 213 1159 525
L 1159 0
L 581 0
L 581 4863
L 1159 4863
L 1159 2969
z
" transform="scale(0.015625)"/>
     <path id="DejaVuSans-33" d="M 1259 4147
L 1259 2394
L 2053 2394
Q 2494 2394 2734 2622
Q 2975 2850 2975 3272
Q 2975 3691 2734 3919
Q 2494 4147 2053 4147
L 1259 4147
z
M 628 4666
L 2053 4666
Q 2838 4666 3239 4311
Q 3641 3956 3641 3272
Q 3641 2581 3239 2228
Q 2838 1875 2053 1875
L 1259 1875
L 1259 0
L 628 0
L 628 4666
z
" transform="scale(0.015625)"/>
     <path id="DejaVuSans-49" d="M 2375 4863
L 2375 4384
L 1825 4384
Q 1516 4384 1395 4259
Q 1275 4134 1275 3809
L 1275 3500
L 2222 3500
L 2222 3053
L 1275 3053
L 1275 0
L 697 0
L 697 3053
L 147 3053
L 147 3500
L 697 3500
L 697 3744
Q 697 4328 969 4595
Q 1241 4863 1831 4863
L 2375 4863
z
" transform="scale(0.015625)"/>
     <path id="DejaVuSans-1e" d="M 750 3309
L 1409 3309
L 1409 2516
L 750 2516
L 750 3309
z
M 750 794
L 1409 794
L 1409 256
L 897 -744
L 494 -744
L 750 256
L 750 794
z
" transform="scale(0.015625)"/>
     <path id="DejaVuSans-1d" d="M 750 794
L 1409 794
L 1409 0
L 750 0
L 750 794
z
M 750 3309
L 1409 3309
L 1409 2516
L 750 2516
L 750 3309
z
" transform="scale(0.015625)"/>
     <path id="DejaVuSans-5b" d="M 3513 3500
L 2247 1797
L 3578 0
L 2900 0
L 1881 1375
L 863 0
L 184 0
L 1544 1831
L 300 3500
L 978 3500
L 1906 2253
L 2834 3500
L 3513 3500
z
" transform="scale(0.015625)"/>
    </defs>
    <use xlink:href="#DejaVuSans-39"/>
    <use xlink:href="#DejaVuSans-44" transform="translate(60.640625 0)"/>
    <use xlink:href="#DejaVuSans-4f" transform="translate(121.921875 0)"/>
    <use xlink:href="#DejaVuSans-4c" transform="translate(149.703125 0)"/>
    <use xlink:href="#DejaVuSans-47" transform="translate(177.484375 0)"/>
    <use xlink:href="#DejaVuSans-44" transform="translate(240.96875 0)"/>
    <use xlink:href="#DejaVuSans-57" transform="translate(302.25 0)"/>
    <use xlink:href="#DejaVuSans-48" transform="translate(341.453125 0)"/>
    <use xlink:href="#DejaVuSans-47" transform="translate(402.984375 0)"/>
    <use xlink:href="#DejaVuSans-3" transform="translate(466.46875 0)"/>
    <use xlink:href="#DejaVuSans-45" transform="translate(498.25 0)"/>
    <use xlink:href="#DejaVuSans-52" transform="translate(561.734375 0)"/>
    <use xlink:href="#DejaVuSans-58" transform="translate(622.921875 0)"/>
    <use xlink:href="#DejaVuSans-51" transform="translate(686.296875 0)"/>
    <use xlink:href="#DejaVuSans-47" transform="translate(749.671875 0)"/>
    <use xlink:href="#DejaVuSans-48" transform="translate(813.15625 0)"/>
    <use xlink:href="#DejaVuSans-47" transform="translate(874.6875 0)"/>
    <use xlink:href="#DejaVuSans-3" transform="translate(938.171875 0)"/>
    <use xlink:href="#DejaVuSans-33" transform="translate(969.953125 0)"/>
    <use xlink:href="#DejaVuSans-44" transform="translate(1025.765625 0)"/>
    <use xlink:href="#DejaVuSans-55" transform="translate(1087.046875 0)"/>
    <use xlink:href="#DejaVuSans-48" transform="translate(1125.953125 0)"/>
    <use xlink:href="#DejaVuSans-57" transform="translate(1187.484375 0)"/>
    <use xlink:href="#DejaVuSans-52" transform="translate(1226.6875 0)"/>
    <use xlink:href="#DejaVuSans-3" transform="translate(1287.875 0)"/>
    <use xlink:href="#DejaVuSans-49" transform="translate(1319.65625 0)"/>
    <use xlink:href="#DejaVuSans-44" transform="translate(1354.859375 0)"/>
    <use xlink:href="#DejaVuSans-50" transform="translate(1416.140625 0)"/>
    <use xlink:href="#DejaVuSans-4c" transform="translate(1513.546875 0)"/>
    <use xlink:href="#DejaVuSans-4f" transform="translate(1541.328125 0)"/>
    <use xlink:href="#DejaVuSans-4c" transform="translate(1569.109375 0)"/>
    <use xlink:href="#DejaVuSans-48" transform="translate(1596.890625 0)"/>
    <use xlink:href="#DejaVuSans-56" transform="translate(1658.421875 0)"/>
    <use xlink:href="#DejaVuSans-1e" transform="translate(1710.515625 0)"/>
    <use xlink:href="#DejaVuSans-3" transform="translate(1744.203125 0)"/>
    <use xlink:href="#DejaVuSans-2a" transform="translate(1775.984375 0)"/>
    <use xlink:href="#DejaVuSans-44" transform="translate(1853.46875 0)"/>
    <use xlink:href="#DejaVuSans-50" transform="translate(1914.75 0)"/>
    <use xlink:href="#DejaVuSans-50" transform="translate(2012.15625 0)"/>
    <use xlink:href="#DejaVuSans-44" transform="translate(2109.5625 0)"/>
    <use xlink:href="#DejaVuSans-3" transform="translate(2170.84375 0)"/>
    <use xlink:href="#DejaVuSans-20" transform="translate(2202.625 0)"/>
    <use xlink:href="#DejaVuSans-3" transform="translate(2286.421875 0)"/>
    <use xlink:href="#DejaVuSans-19" transform="translate(2318.203125 0)"/>
    <use xlink:href="#DejaVuSans-3" transform="translate(2381.828125 0)"/>
    <use xlink:href="#DejaVuSans-47" transform="translate(2413.609375 0)"/>
    <use xlink:href="#DejaVuSans-25" transform="translate(2477.09375 0)"/>
    <use xlink:href="#DejaVuSans-1d" transform="translate(2545.703125 0)"/>
    <use xlink:href="#DejaVuSans-3" transform="translate(2579.390625 0)"/>
    <use xlink:href="#DejaVuSans-51" transform="translate(2611.171875 0)"/>
    <use xlink:href="#DejaVuSans-52" transform="translate(2674.546875 0)"/>
    <use xlink:href="#DejaVuSans-3" transform="translate(2735.734375 0)"/>
    <use xlink:href="#DejaVuSans-48" transform="translate(2767.515625 0)"/>
    <use xlink:href="#DejaVuSans-5b" transform="translate(2827.296875 0)"/>
    <use xlink:href="#DejaVuSans-48" transform="translate(2883.40625 0)"/>
    <use xlink:href="#DejaVuSans-46" transform="translate(2944.9375 0)"/>
    <use xlink:href="#DejaVuSans-58" transform="translate(2999.921875 0)"/>
    <use xlink:href="#DejaVuSans-57" transform="translate(3063.296875 0)"/>
    <use xlink:href="#DejaVuSans-44" transform="translate(3102.5 0)"/>
    <use xlink:href="#DejaVuSans-45" transform="translate(3163.78125 0)"/>
    <use xlink:href="#DejaVuSans-4f" transform="translate(3227.265625 0)"/>
    <use xlink:href="#DejaVuSans-48" transform="translate(3255.046875 0)"/>
    <use xlink:href="#DejaVuSans-3" transform="translate(3316.578125 0)"/>
    <use xlink:href="#DejaVuSans-5a" transform="translate(3348.359375 0)"/>
    <use xlink:href="#DejaVuSans-4c" transform="translate(3430.140625 0)"/>
    <use xlink:href="#DejaVuSans-57" transform="translate(3457.921875 0)"/>
    <use xlink:href="#DejaVuSans-51" transform="translate(3497.125 0)"/>
    <use xlink:href="#DejaVuSans-48" transform="translate(3560.5 0)"/>
    <use xlink:href="#DejaVuSans-56" transform="translate(3622.03125 0)"/>
    <use xlink:href="#DejaVuSans-56" transform="translate(3674.125 0)"/>
    <use xlink:href="#DejaVuSans-3" transform="translate(3726.21875 0)"/>
    <use xlink:href="#DejaVuSans-49" transform="translate(3758 0)"/>
    <use xlink:href="#DejaVuSans-52" transform="translate(3793.203125 0)"/>
    <use xlink:href="#DejaVuSans-58" transform="translate(3854.390625 0)"/>
    <use xlink:href="#DejaVuSans-51" transform="translate(3917.765625 0)"/>
    <use xlink:href="#DejaVuSans-47" transform="translate(3981.140625 0)"/>
   </g>
  </g>
 </g>
 <defs>
  <clipPath id="p00d22f4982">
   <rect x="55.813521" y="20.001579" width="340.999916" height="248.397399"/>
  </clipPath>
  <clipPath id="p84af67bb67">
   <rect x="447.999844" y="20.001579" width="340.999916" height="248.397399"/>
  </clipPath>
 </defs>
</svg>
